<svg xmlns="http://www.w3.org/2000/svg" viewBox="0 0 64 64">
  <defs>
    <linearGradient id="bg" x1="8" x2="56" y1="8" y2="56" gradientUnits="userSpaceOnUse">
      <stop offset="0" stop-color="#0f766e"/>
      <stop offset="1" stop-color="#124d63"/>
    </linearGradient>
  </defs>
  <rect width="56" height="56" x="4" y="4" rx="16" fill="url(#bg)"/>
  <path fill="#fff7ea" d="M22 14.5l2.81 5.68 6.27.91-4.54 4.42 1.07 6.24L22 28.79l-5.61 2.96 1.07-6.24-4.54-4.42 6.27-.91L22 14.5Z"/>
  <rect width="18" height="5" x="30" y="22" rx="2.5" fill="#ffffff" opacity=".96"/>
  <rect width="18" height="5" x="30" y="31" rx="2.5" fill="#ffffff" opacity=".82"/>
  <rect width="18" height="5" x="30" y="40" rx="2.5" fill="#ffffff" opacity=".68"/>
  <circle cx="23.5" cy="44.5" r="5.5" fill="#ffbb7a"/>
  <path fill="#7a3412" d="M23.5 40.8l1.18 2.39 2.64.38-1.91 1.86.45 2.62-2.36-1.24-2.36 1.24.45-2.62-1.91-1.86 2.64-.38 1.18-2.39Z"/>
</svg>
